{
    "asset" : {
        "generator" : "Khronos glTF Blender I/O v1.6.16",
        "version" : "2.0"
    },
    "extensionsUsed" : [
        "KHR_materials_transmission"
    ],
    "scene" : 0,
    "scenes" : [
        {
            "name" : "Scene",
            "nodes" : [
                0
            ]
        }
    ],
    "nodes" : [
        {
            "mesh" : 0,
            "name" : "Roundcube.001",
            "translation" : [
                0.2801283597946167,
                2.596536159515381,
                0
            ]
        }
    ],
    "materials" : [
        {
            "doubleSided" : true,
            "extensions" : {
                "KHR_materials_transmission" : {
                    "transmissionFactor" : 1
                }
            },
            "name" : "Material.001",
            "pbrMetallicRoughness" : {
                "baseColorFactor" : [
                    0,
                    0.0031740921549499035,
                    0.8000000715255737,
                    1
                ],
                "metallicFactor" : 0,
                "roughnessFactor" : 0
            }
        }
    ],
    "meshes" : [
        {
            "name" : "Roundcube.001",
            "primitives" : [
                {
                    "attributes" : {
                        "POSITION" : 0,
                        "NORMAL" : 1
                    },
                    "indices" : 2,
                    "material" : 0
                },
                {
                    "attributes" : {
                        "POSITION" : 3
                    },
                    "material" : 0,
                    "mode" : 0
                }
            ]
        }
    ],
    "accessors" : [
        {
            "bufferView" : 0,
            "componentType" : 5126,
            "count" : 1680,
            "max" : [
                0.9669100046157837,
                1.3752425909042358,
                0.9669100046157837
            ],
            "min" : [
                -0.9669100046157837,
                -0.9327626824378967,
                -0.9669100046157837
            ],
            "type" : "VEC3"
        },
        {
            "bufferView" : 1,
            "componentType" : 5126,
            "count" : 1680,
            "type" : "VEC3"
        },
        {
            "bufferView" : 2,
            "componentType" : 5123,
            "count" : 10032,
            "type" : "SCALAR"
        },
        {
            "bufferView" : 3,
            "componentType" : 5126,
            "count" : 1,
            "max" : [
                0.2955186665058136,
                1.6532646417617798,
                0.5198489427566528
            ],
            "min" : [
                0.2955186665058136,
                1.6532646417617798,
                0.5198489427566528
            ],
            "type" : "VEC3"
        }
    ],
    "bufferViews" : [
        {
            "buffer" : 0,
            "byteLength" : 20160,
            "byteOffset" : 0
        },
        {
            "buffer" : 0,
            "byteLength" : 20160,
            "byteOffset" : 20160
        },
        {
            "buffer" : 0,
            "byteLength" : 20064,
            "byteOffset" : 40320
        },
        {
            "buffer" : 0,
            "byteLength" : 12,
            "byteOffset" : 60384
        }
    ],
    "buffers" : [
        {
            "byteLength" : 60396,
            "uri" : "data:application/octet-stream;base64,"
        }
    ]
}
